<svg xmlns="http://www.w3.org/2000/svg" viewBox="0 0 152.11 172.16"><defs><linearGradient id="a92479d39-7423-4043-809d-8fb538ef6a8b" y1="86.08" x2="152.11" y2="86.08" gradientUnits="userSpaceOnUse"><stop offset="0" stop-color="#4f6be0"></stop><stop offset=".99" stop-color="#b768d8"></stop></linearGradient></defs><g><path d="M128.77 142.14a5.16 5.16 0 0 0 2-3.54 5.28 5.28 0 0 0-1.22-4L121 124.5a5.29 5.29 0 0 0-7.25-.76 46.34 46.34 0 0 1-32.94 8.65 45.07 45.07 0 0 1-7-1.4l-2.2 6.14-3.61 10.1-2.19 6.11a69.91 69.91 0 0 0 63-11.2zm-53.86 6.71l3.29-10.26c1.21.19 2.42.35 3.65.46a52.55 52.55 0 0 0 33.48-8.48 1.36 1.36 0 0 1 1.73.21l5.53 5.9a1.36 1.36 0 0 1-.23 2 63.54 63.54 0 0 1-45.9 10.43c-.52-.04-1.03-.17-1.55-.26zm75.65-5.64a85.27 85.27 0 0 1-71.5 28.64 87.45 87.45 0 0 1-61.34-33.26A81.5 81.5 0 0 1 1.06 74.82a92.59 92.59 0 0 1 18.86-43.06L24.67 36l6.9 6.12 4.87 4.33a63.2 63.2 0 0 0-13.88 38.91 63.92 63.92 0 0 0 32.52 56.29l3.93-10A53.07 53.07 0 0 1 86.26 33h.91a52.94 52.94 0 0 1 36.25 15.13 1.35 1.35 0 0 0 1.81.08c5.19-4.3 14.64-11.9 18.47-15a1.35 1.35 0 0 0 .13-2 79.32 79.32 0 0 0-109.68-4.97l7 6.13A70.11 70.11 0 0 1 128 29.55a3.24 3.24 0 0 1 1.31 2.55 3.28 3.28 0 0 1-5.2 2.7 63.6 63.6 0 0 0-80.58 4.11c-.73.66-1.44 1.34-2.13 2l-4.89-4.34-6.89-6.12-4.84-4.31C40.18 9.84 61.33 0 84.24 0c1.76 0 3.42.05 5.14.16 23.7 1.52 45 11.33 60.08 27.61a5.49 5.49 0 0 1-.53 7.9L127.24 54a5.52 5.52 0 0 1-7.51-.27 46.55 46.55 0 1 0-52.85 74.7l-2.21 6.17-3.62 10.11-2.19 6.11A70.64 70.64 0 0 1 31 129.39a70.05 70.05 0 0 1-2.88-82.53l-7.35-5.65A78.87 78.87 0 0 0 6.83 85.67c-.31 38.7 28.27 72.62 66.46 78.9a79.2 79.2 0 0 0 66.71-19.8l5.44-5a1.35 1.35 0 0 0 .13-1.86l-27-33.09a1.29 1.29 0 0 0-1.12-.5 1.37 1.37 0 0 0-1.07.61 35.47 35.47 0 1 1-30.05-54.86h.3a35.51 35.51 0 0 1 25 10.31l5-4 1.51 16.18-15.54-4.75 5.21-4.25a30.4 30.4 0 0 0-42-.14 30.49 30.49 0 1 0 48.66 34.85 2.93 2.93 0 0 1 2.29-1.71 2.89 2.89 0 0 1 2.65 1l1 1.2c6 7 21.61 26.1 30.38 36.83a5.8 5.8 0 0 1-.23 7.62z" fill="#ffffff"></path></g></svg>