<?xml version="1.0" standalone="no"?><!DOCTYPE svg PUBLIC "-//W3C//DTD SVG 1.1//EN" "http://www.w3.org/Graphics/SVG/1.1/DTD/svg11.dtd"><svg t="1542513387089" class="icon" style="" viewBox="0 0 1024 1024" version="1.1" xmlns="http://www.w3.org/2000/svg" p-id="2557" xmlns:xlink="http://www.w3.org/1999/xlink" width="200" height="200"><defs><style type="text/css"></style></defs><path d="M987.013731 492.277629c-4.263028 24.422072-14.033603 46.938064-29.031164 66.916981-14.994286 19.972367-33.898985 35.624938-56.188998 46.518857-21.257279 10.390652-45.024341 15.881825-68.726993 15.881825H677.595429c24.315087 82.157987 35.693714 153.949339 33.834575 213.543301-1.585126 50.784068-12.726857 93.022431-33.115155 125.53716-34.257058 54.632256-82.278072 62.544785-84.307514 62.855914l-0.742346 0.113536h-0.747803c-31.007113 0-52.544955-8.756401-64.016376-26.025757-9.685424-14.581629-9.871011-31.702516-9.995462-43.032017-0.033842-3.189902-0.067684-6.204043-0.319864-7.992222l-0.100435-0.689945v-0.696494c0-151.212486-157.237493-276.579343-225.097689-323.613476H81.128529c-25.6131 0-46.448989-20.835889-46.44899-46.448989V46.807062C34.679539 21.19287 55.515429 0.355889 81.128529 0.355889h688.036298c18.118687 0 35.379309 5.758635 49.923821 16.656921 14.415693 10.832785 24.696085 25.676418 29.753859 42.943591l134.080683 361.172878 0.22707 0.689945c6.600324 22.771446 7.934362 47.140026 3.864563 70.457313zM74.897194 46.804878v528.340333c0 3.378763 2.854755 6.233518 6.233518 6.233518H253.041535V40.57136H81.128529c-3.378763 0-6.232426 2.855846-6.232427 6.233518zM944.809211 434.014431L811.141186 73.951795a40.500401 40.500401 0 0 1-0.895182-2.69646c-2.634235-9.00203-7.786985-16.432034-15.308691-22.08696-7.629783-5.701868-16.301032-8.594832-25.771394-8.594831H293.258098V581.387463a40.204554 40.204554 0 0 1 22.639352 7.152716c72.62649 50.337569 241.205493 185.437885 242.397612 354.862943 0.347156 3.534874 0.384273 7.052281 0.425757 10.746541 0.075326 6.983505 0.180128 16.548844 3.280511 21.21252 3.0851 4.644026 13.482303 7.643974 27.483156 8.021698 7.447471-1.949748 33.99942-10.96597 54.759983-44.075668 16.548844-26.392563 25.628384-61.863574 26.989714-105.426149 1.722678-55.267616-9.111198-122.852708-32.201415-200.875394a40.217655 40.217655 0 0 1 38.564844-51.630124h155.471147c17.617603 0 35.277783-4.078533 51.068998-11.797834 16.521552-8.07519 30.548606-19.693987 41.684878-34.529979 11.15374-14.860009 18.413441-31.579156 21.576052-49.6902 2.962832-16.981151 2.066559-34.711198-2.589476-51.346286z" fill="#515151" p-id="2558"></path></svg>