<?xml version="1.0" encoding="utf-8"?>
<!-- Svg Vector Icons : http://www.sfont.cn -->
<!DOCTYPE svg PUBLIC "-//W3C//DTD SVG 1.1//EN" "http://www.w3.org/Graphics/SVG/1.1/DTD/svg11.dtd">
<svg version="1.1" xmlns="http://www.w3.org/2000/svg" xmlns:xlink="http://www.w3.org/1999/xlink" x="0px" y="0px" viewBox="0 0 1000 1000" enable-background="new 0 0 1000 1000" xml:space="preserve">
<metadata> Svg Vector Icons : http://www.sfont.cn </metadata>
<g><path d="M891.5,369.1h-195c14.2-32.7,30.5-117.4,21-194.3C710,113.3,673.9,66.2,621,48.4c-39.2-13.2-80.5-6.8-102.8,15.8c-26.5,26.9-39,77.7-52.2,131.3c-8.6,35.1-17.5,71.5-28.6,90.2c-32.1,54.1-99.1,78.8-112.6,83.3h-92.5c-18.2,0-33,14.7-33,32.7v458.4c0,18.1,14.8,32.7,33,32.7h89.2c27.5,14.8,130.2,65.5,248.9,65.5h222.3c36.6,0,99.6-14.1,123.3-52.9c23.8-39.3,74.1-397.6,74.1-437.4C990,413.4,936.1,369.1,891.5,369.1z M10,895.2h158.1V389.4H10V895.2z" fill="#9e9e9e"/></g>
</svg>